<svg width="204" height="146" viewBox="0 0 204 146" fill="none" xmlns="http://www.w3.org/2000/svg">
<path d="M169.458 1.59594C167.467 2.38026 166.212 3.92871 166.656 5.05433C176.797 30.952 147.963 66.5345 102.2 84.5946L31.5876 112.41L60.4373 76.8143C61.5015 75.4599 60.9537 74.1851 59.2135 73.9672C57.5158 73.7548 55.301 74.6272 54.2045 75.9403L20.5756 117.44C19.479 118.79 19.9846 120.081 21.7046 120.325C21.7071 120.325 21.71 120.325 21.7125 120.326L74.6095 127.741C76.3119 128.006 78.6028 127.13 79.7272 125.783C80.8512 124.437 80.3826 123.132 78.6805 122.867C78.6447 122.861 78.6088 122.856 78.5722 122.851L33.1933 116.486L103.806 88.671C153.548 69.0404 184.89 30.3636 173.866 2.2139C173.422 1.08846 171.449 0.811623 169.458 1.59594Z" fill="#2196F3"/>
</svg>
