<svg width="208" height="231" viewBox="0 0 208 231" fill="none" xmlns="http://www.w3.org/2000/svg">
<path d="M150.219 130.503H126.182C123.45 130.503 121.234 132.518 121.234 135.003C121.234 137.488 123.45 139.503 126.182 139.503H150.219C152.948 139.503 155.167 141.522 155.167 144.003V153.003C155.167 155.837 151.326 157.121 149.036 157.634L114.1 165.457C110.836 166.181 107.695 166.504 103.914 166.504C100.133 166.504 96.992 166.181 93.7385 165.459L58.7921 157.634C56.5025 157.121 52.6611 155.838 52.6611 153.003V144.003C52.6611 141.522 54.8809 139.503 57.6094 139.503H81.6468C84.3798 139.503 86.5951 137.488 86.5951 135.003C86.5951 132.518 84.3798 130.503 81.6468 130.503H57.6094C49.4239 130.503 42.7645 136.559 42.7645 144.003V153.003V196.577C42.7645 201.54 47.2041 205.577 52.6611 205.577H155.168C160.624 205.577 165.064 201.54 165.064 196.577V153.003V144.003C165.064 136.559 158.405 130.503 150.219 130.503ZM52.6616 196.577V165.25C53.8274 165.696 55.0843 166.072 56.4263 166.372L91.3826 174.2C95.3907 175.09 99.3726 175.504 103.914 175.504C108.455 175.504 112.437 175.09 116.456 174.198L151.402 166.372C152.744 166.072 154.001 165.695 155.167 165.249L155.168 196.576L52.6616 196.577Z" fill="white"/>
<path d="M198.674 148.538V63.0016C198.674 45.632 183.136 31.5008 164.037 31.5008H138.375C134.027 29.2953 129.447 27.5258 124.697 26.2069V13.5003C124.697 6.05625 118.038 0 109.853 0H97.9761C89.7907 0 83.1312 6.05625 83.1312 13.5003V26.2069C78.3819 27.5258 73.8018 29.2957 69.4542 31.5008H43.7924C24.693 31.5008 9.15433 45.632 9.15433 63.0016V148.538C4.04424 148.885 0 152.769 0 157.504V207.906C0 220.312 11.099 230.406 24.7414 230.406H54.4312H153.397H183.087C196.729 230.406 207.828 220.312 207.828 207.906V157.504C207.829 152.769 203.785 148.885 198.674 148.538ZM164.037 40.501C177.679 40.501 188.778 50.5948 188.778 63.0016V148.504H183.434L178.122 90.5292C176.482 72.6341 168.466 55.9846 155.551 43.6484C154.408 42.5567 153.23 41.5099 152.024 40.501H164.037ZM153.397 221.406H54.4317C47.3398 221.406 40.236 218.57 35.4288 213.819C31.2376 209.676 29.1934 204.513 29.6734 199.28L39.57 91.2771C41.4112 71.1792 52.8245 50.9111 72.3351 40.1905C72.8324 40.0141 73.2916 39.7698 73.6954 39.4651C82.2985 35.019 92.4113 32.4017 103.915 32.4017C115.418 32.4017 125.531 35.019 134.135 39.4655C134.538 39.7702 134.997 40.0137 135.494 40.1901C155.005 50.9107 166.418 71.1787 168.259 91.2767L178.156 199.279C178.636 204.513 176.592 209.676 172.401 213.818C167.594 218.57 160.489 221.406 153.397 221.406ZM93.0278 13.5003C93.0278 11.019 95.2476 9.00023 97.9761 9.00023H109.853C112.581 9.00023 114.801 11.019 114.801 13.5003V24.1512C111.232 23.6539 107.596 23.401 103.915 23.401C100.233 23.401 96.5965 23.6539 93.0278 24.1512V13.5003ZM43.7924 40.501H55.8053C54.5989 41.5099 53.4207 42.5567 52.2777 43.6484C39.3626 55.9846 31.3474 72.6341 29.7075 90.5292L24.3951 148.504H19.0509V63.0016C19.0509 50.5948 30.1499 40.501 43.7924 40.501ZM24.7419 221.406C16.5565 221.406 9.89707 215.35 9.89707 207.906V157.504H23.5707L19.811 198.532C19.0989 206.303 22.059 213.896 28.1459 219.912C28.6694 220.43 29.2152 220.924 29.7714 221.406H24.7419V221.406ZM197.932 207.906C197.932 215.35 191.273 221.406 183.087 221.406H178.057C178.614 220.924 179.16 220.43 179.683 219.912C185.77 213.896 188.73 206.303 188.018 198.532L184.258 157.504H197.932V207.906Z" fill="white"/>
<path d="M96.9171 105.494C98.7826 107.191 101.268 108.125 103.915 108.125C106.562 108.125 109.048 107.191 110.913 105.494L124.909 92.7657C128.767 89.257 128.768 83.5472 124.909 80.0375L110.913 67.3094C109.047 65.6128 106.562 64.6786 103.915 64.6786C101.268 64.6786 98.7826 65.6128 96.9171 67.3094L82.9208 80.038C81.0553 81.7345 80.028 83.9945 80.028 86.4021C80.028 88.8101 81.0553 91.0701 82.9208 92.7662L96.9171 105.494ZM103.915 73.6735L117.911 86.4016L103.915 99.1302L89.9182 86.4025L103.915 73.6735Z" fill="white"/>
<path d="M103.913 130.503C101.18 130.503 98.9662 132.518 98.9662 135.003C98.9662 137.488 101.183 139.503 103.916 139.503C106.648 139.503 108.864 137.488 108.864 135.003C108.864 132.518 106.648 130.503 103.916 130.503H103.913Z" fill="white"/>
</svg>
