<svg width="200" height="200" viewBox="0 0 200 200" fill="none" xmlns="http://www.w3.org/2000/svg">
<path d="M190.909 109.091C188.182 109.091 186.364 110.909 186.364 113.636V172.727C186.364 175.455 184.545 177.273 181.818 177.273H18.1817C15.4543 177.273 13.6363 175.454 13.6363 172.727V113.636C13.6363 110.909 11.818 109.091 9.09103 109.091C6.36407 109.091 4.54572 110.909 4.54572 113.636V172.727C4.54572 180.455 10.4547 186.364 18.182 186.364H181.818C189.546 186.364 195.455 180.455 195.455 172.727V113.636C195.455 110.909 193.636 109.091 190.909 109.091Z" fill="#A33F3F" fill-opacity="0.86"/>
<path d="M186.364 45.4547H13.6363C5.90898 45.4547 0 51.3637 0 59.091V88.1821C0 94.5453 4.54531 100 10.4547 101.364L81.8184 117.273V131.818C81.8184 134.545 83.6367 136.363 86.3637 136.363H113.636C116.364 136.363 118.182 134.545 118.182 131.818V117.273L189.545 101.364C195.455 100 200 94.5453 200 88.1817V59.0907C200 51.3637 194.091 45.4547 186.364 45.4547ZM109.091 127.273H90.9094V109.091H109.091V127.273ZM190.909 88.1817C190.909 90.4543 189.545 92.2727 187.273 92.727L118.182 108.182V104.545C118.182 101.818 116.363 100 113.636 100H86.3637C83.6363 100 81.8184 101.818 81.8184 104.545V108.182L12.7273 92.7274C10.4547 92.2727 9.09102 90.4547 9.09102 88.1821V59.091C9.09102 56.3637 10.9094 54.5457 13.6363 54.5457H186.364C189.091 54.5457 190.909 56.3641 190.909 59.091V88.1817Z" fill="#A33F3F" fill-opacity="0.86"/>
<path d="M122.727 13.6364H77.2726C69.5453 13.6364 63.6363 19.5453 63.6363 27.2727V31.818C63.6363 34.5453 65.4547 36.3633 68.1816 36.3633C70.9086 36.3633 72.7269 34.5449 72.7269 31.818V27.2727C72.7269 24.5453 74.5453 22.7274 77.2723 22.7274H122.727C125.454 22.7274 127.272 24.5457 127.272 27.2727V31.818C127.272 34.5453 129.091 36.3633 131.818 36.3633C134.545 36.3633 136.363 34.5449 136.363 31.818V27.2727C136.364 19.5453 130.455 13.6364 122.727 13.6364Z" fill="#A33F3F" fill-opacity="0.86"/>
</svg>
