<svg width="170" height="170" viewBox="0 0 170 170" fill="none" xmlns="http://www.w3.org/2000/svg">
<path d="M84.9998 0C38.0557 0 0 38.0557 0 84.9998C0 131.944 38.0557 170 84.9998 170C131.944 170 170 131.944 170 84.9998C169.95 38.0767 131.923 0.0501604 84.9998 0ZM84.9998 160.225C44.7619 160.225 8.5 125.238 8.5 84.9998C8.5 44.7619 44.7619 9.775 84.9998 9.775C125.238 9.775 160.65 44.7619 160.65 84.9998C160.607 125.22 125.22 160.182 84.9998 160.225Z" fill="#A33F3F" fill-opacity="0.92"/>
<path d="M131.643 50.3504C129.29 48.0779 125.56 48.0779 123.207 50.3504L66.7855 106.772L46.7922 86.7786C44.4627 84.3666 40.6189 84.3001 38.2073 86.6295C35.7953 88.959 35.7288 92.8028 38.0582 95.2144C38.1069 95.2649 38.1567 95.3147 38.2073 95.3635L62.4931 119.649C64.8638 122.02 68.7073 122.02 71.078 119.649L131.792 58.9349C134.122 56.5233 134.055 52.6798 131.643 50.3504Z" fill="#A33F3F" fill-opacity="0.92"/>
</svg>
