<svg width="200" height="174" viewBox="0 0 200 174" fill="none" xmlns="http://www.w3.org/2000/svg">
<path d="M175.302 103.153H156.552C154.933 103.153 153.622 104.464 153.622 106.082C153.622 107.7 154.933 109.012 156.552 109.012H175.302C176.92 109.012 178.231 107.7 178.231 106.082C178.231 104.464 176.92 103.153 175.302 103.153Z" fill="#A33F3F"/>
<path d="M175.302 115.195H156.552C154.933 115.195 153.622 116.507 153.622 118.125C153.622 119.743 154.933 121.055 156.552 121.055H175.302C176.92 121.055 178.231 119.743 178.231 118.125C178.231 116.507 176.92 115.195 175.302 115.195Z" fill="#A33F3F"/>
<path d="M175.302 91.1101H156.552C154.933 91.1101 153.622 92.4218 153.622 94.0398C153.622 95.6578 154.933 96.9695 156.552 96.9695H175.302C176.92 96.9695 178.231 95.6578 178.231 94.0398C178.231 92.4218 176.92 91.1101 175.302 91.1101Z" fill="#A33F3F"/>
<path d="M132.444 87.2999C129.831 87.2999 127.705 89.4257 127.705 92.0386V94.8148H120.831C118.218 94.8148 116.093 96.9405 116.093 99.553V102.059H109.2C106.587 102.059 104.461 104.184 104.461 106.797V120.517C104.461 122.915 106.412 124.865 108.809 124.865H140.848C143.246 124.865 145.196 122.915 145.196 120.517V92.0386C145.196 89.4257 143.071 87.2999 140.458 87.2999H132.444ZM116.093 119.006H110.321V107.918H116.093V119.006ZM127.705 119.006H121.952C121.952 115.441 121.952 104.309 121.952 100.674H127.705V119.006ZM139.336 119.006H133.583C133.583 100.057 133.564 94.0327 133.564 93.1593H139.336V119.006H139.336Z" fill="#A33F3F"/>
<path d="M7.20505 173.159H56.7056C58.324 173.159 59.6353 171.848 59.6353 170.23C59.6353 168.612 58.324 167.3 56.7056 167.3H26.6022V127.942C26.6022 126.324 25.2909 125.012 23.6726 125.012C22.0542 125.012 20.7429 126.324 20.7429 127.942V167.3H7.20505C6.46326 167.3 5.85935 166.697 5.85935 165.954V124.487C5.85935 115.216 12.425 109.139 16.8527 107.305L35.9026 99.8656L47.2404 111.203C51.3974 115.361 57.1939 117.958 63.5415 117.958C69.6607 117.958 75.5134 115.531 79.843 111.203L91.0211 100.025V138.799C91.0211 142.944 94.3938 146.317 98.5391 146.317H100.481V167.301H70.3775C68.7591 167.301 67.4478 168.613 67.4478 170.231C67.4478 171.849 68.7591 173.16 70.3775 173.16H119.878C123.851 173.16 127.083 169.928 127.083 165.955V146.317H139.243V155.301C135.619 156.526 133.002 159.957 133.002 163.989C133.002 169.046 137.116 173.16 142.173 173.16C147.23 173.16 151.344 169.046 151.344 163.989C151.344 159.957 148.727 156.526 145.103 155.301V146.317H185.806C189.952 146.317 193.324 142.944 193.324 138.799V112.919C193.324 111.301 192.013 109.989 190.395 109.989C188.776 109.989 187.465 111.301 187.465 112.919V138.799C187.465 139.713 186.721 140.458 185.806 140.458H124.153H98.5395C97.625 140.458 96.8809 139.713 96.8809 138.799C96.8809 136.953 96.8809 72.1493 96.8809 70.3036H187.465V99.2472C187.465 100.865 188.776 102.177 190.395 102.177C192.013 102.177 193.324 100.865 193.324 99.2472V70.3036H193.326C197.006 70.3036 200 67.3095 200 63.6294V57.9826C200 54.3025 197.006 51.3088 193.326 51.3088H100.975C100.375 48.1142 98.5672 45.2662 95.9996 43.4021C96.2797 42.6225 96.4402 41.7861 96.4402 40.9111V21.9874C96.4402 15.7898 91.0703 11.2402 85.5305 11.6656C84.8411 11.7191 84.0657 11.3659 83.9137 10.5902C82.6305 4.02965 78.5087 0.84021 71.313 0.84021H46.4498C35.7237 0.84021 26.9975 9.56635 26.9975 20.2925V38.4256C26.9975 40.9662 27.9616 43.2857 29.5421 45.0389C27.2643 47.3474 25.8843 50.4545 25.8843 53.6537C25.8843 59.6267 30.5464 64.9419 37.1276 65.6837C38.069 72.4126 41.6776 78.9161 47.4799 83.2446V89.0531C44.1842 90.3406 18.1839 100.495 14.6933 101.858C14.6769 101.865 14.6605 101.871 14.6441 101.878C7.59138 104.781 0 113.094 0 124.487V165.955C0 169.927 3.23202 173.159 7.20505 173.159ZM142.173 160.677C143.999 160.677 145.485 162.163 145.485 163.989C145.485 165.815 143.999 167.3 142.173 167.3C140.347 167.3 138.861 165.815 138.861 163.989C138.861 162.163 140.347 160.677 142.173 160.677ZM106.34 146.317H121.224V165.955C121.224 166.697 120.62 167.3 119.878 167.3H106.341V146.317H106.34ZM55.8935 110.302C59.3888 106.783 58.1193 108.061 61.6255 104.532C61.6294 104.528 61.6326 104.523 61.6361 104.519C61.8943 104.258 62.1388 103.929 62.2884 103.687H64.7447C64.9017 103.944 65.1536 104.275 65.4083 104.532L71.1564 110.318C66.3548 112.698 60.69 112.692 55.8935 110.302ZM53.3353 89.7527C53.3381 89.6785 53.3396 89.6039 53.3396 89.5285V86.5203C59.3834 88.932 66.9181 89.3235 73.7267 86.5664L73.7294 89.5508C73.7294 89.6067 73.7306 89.6625 73.7325 89.7184C70.3341 93.0926 68.8634 94.5527 65.565 97.8277H61.4693C59.4072 95.7812 54.9935 91.3992 53.3353 89.7527ZM75.9399 106.82C75.3774 106.254 71.0689 101.916 70.4212 101.264L77.2145 94.5187C81.3446 96.1183 81.1188 96.0308 85.1626 97.5969L75.9399 106.82ZM91.0215 93.5824L79.5887 89.1551L79.5837 83.275C83.9911 79.9887 87.3395 75.3579 89.0149 69.9946C89.6481 70.1946 90.3211 70.3036 91.0196 70.3036H91.0215V93.5824ZM193.326 57.1673C193.775 57.1673 194.141 57.533 194.141 57.9818V63.6286C194.141 64.0779 193.775 64.4435 193.326 64.4435C188.403 64.4435 96.0387 64.4435 91.0196 64.4435C90.5707 64.4435 90.2051 64.0779 90.2051 63.6286C90.2051 60.4087 90.2051 61.1052 90.2051 57.9818C90.2051 57.5326 90.5707 57.1669 91.0196 57.1669C97.0586 57.1673 187.365 57.1673 193.326 57.1673ZM91.9129 47.7306C93.2864 48.4931 94.3649 49.7924 94.9223 51.3076H91.0196C90.7539 51.3076 90.384 51.3349 90.2051 51.3568V48.2193C90.7856 48.1275 91.4457 47.9287 91.9129 47.7306ZM36.8784 59.7072C33.96 59.0119 31.7436 56.588 31.7436 53.6533C31.7436 51.5099 33.0374 49.3525 34.9803 48.1263C35.442 48.2166 35.9147 48.2763 36.3963 48.2998C36.5569 48.308 36.7174 48.3119 36.878 48.3123V59.7072H36.8784ZM36.8842 42.4525C34.7131 42.4525 32.8569 40.6822 32.8569 38.4252V20.2925C32.8569 12.7972 38.9545 6.69956 46.4498 6.69956H71.313C76.7407 6.69956 77.6266 8.97104 78.1634 11.7148C78.8657 15.3062 82.2309 17.7956 85.9797 17.5077C88.15 17.3421 90.5805 19.2417 90.5805 21.9874V40.91C90.5805 41.7529 89.8528 42.4525 89.0379 42.4525C85.918 42.4525 83.4356 39.8756 83.4356 36.8502C83.4356 33.3452 78.7321 32.1913 77.0946 35.2573C74.722 39.6951 70.1267 42.4522 65.1033 42.4522C61.0099 42.4525 40.9842 42.4525 36.8842 42.4525ZM42.7377 62.1603V48.3119H65.1033C70.3568 48.3119 75.3829 46.1889 79.0329 42.4377C80.2317 44.576 82.0985 46.2889 84.3458 47.3017V62.1599C84.3458 73.5766 75.0157 82.625 63.8802 82.625C51.1185 82.6254 42.7377 72.7083 42.7377 62.1603ZM49.7553 94.4551C54.208 98.8762 52.5135 97.1937 56.6131 101.264C53.6388 104.258 54.7158 103.174 51.1189 106.795L41.8619 97.5383L49.7553 94.4551Z" fill="#A33F3F"/>
</svg>
