<svg width="272" height="224" viewBox="0 0 272 224" fill="none" xmlns="http://www.w3.org/2000/svg">
<path d="M269.4 50.8898L183.387 17.8944C181.302 17.0946 178.967 18.147 178.172 20.2434C177.377 22.3419 178.423 24.691 180.509 25.4907L256.621 54.688L203.932 74.9024L137.666 44.7133C135.633 43.7862 133.24 44.6946 132.321 46.7388C131.399 48.785 132.302 51.1926 134.334 52.1197L193.296 78.9825L136 100.961L15.3793 54.688L136 8.4146L165.725 19.8196C167.807 20.6172 170.143 19.5669 170.94 17.4684C171.735 15.372 170.689 13.0229 168.603 12.2232L137.44 0.267011C136.513 -0.0879585 135.487 -0.090047 134.56 0.267011L2.60022 50.8898C1.03552 51.4912 0 53.0029 0 54.688V73.2508C0 74.9359 1.03552 76.4476 2.60022 77.049L43.8074 92.8555V106.942C43.8074 109.186 45.6149 111.007 47.8457 111.007C50.0786 111.007 51.8861 109.186 51.8861 106.942V95.9563L134.56 127.672C135.025 127.849 135.512 127.939 136 127.939C136.488 127.939 136.975 127.849 137.44 127.672L199.758 103.766V168.094C180.193 178.428 158.254 183.966 136 183.966C105.627 183.966 75.8359 173.663 51.8861 154.915V123.201C51.8861 120.957 50.0786 119.136 47.8457 119.136C45.6149 119.136 43.8074 120.957 43.8074 123.201V156.884C43.8074 158.118 44.3635 159.285 45.3202 160.055C70.9509 180.717 103.156 192.095 136 192.095C158.151 192.095 180.007 186.912 199.758 177.205V193.656C193.248 195.446 188.448 201.445 188.448 208.555C188.448 217.07 195.334 224 203.797 224C212.261 224 219.147 217.07 219.147 208.555C219.147 201.445 214.347 195.446 207.837 193.656V172.912C214.422 169.143 220.73 164.854 226.682 160.055C227.639 159.285 228.197 158.118 228.197 156.884V92.8534L269.4 77.0469C270.964 76.4476 272 74.9359 272 73.2487V54.688C272 53.0029 270.964 51.4912 269.4 50.8898ZM211.068 208.555C211.068 212.587 207.806 215.869 203.797 215.869C199.789 215.869 196.527 212.587 196.527 208.555C196.527 204.521 199.789 201.238 203.797 201.238C207.806 201.238 211.068 204.521 211.068 208.555ZM8.07874 60.5888L131.96 108.113V117.973L8.07874 70.4486V60.5888ZM140.04 117.973V108.113L199.758 85.2028V95.0647L140.04 117.973ZM220.116 154.913C216.175 157.999 212.073 160.851 207.837 163.469V100.665L220.116 95.9542V154.913ZM207.837 91.9639V82.1041L263.921 60.5888V70.4486L207.837 91.9639Z" fill="white"/>
</svg>
